<?xml version="1.0" encoding="UTF-8"?>
<svg version="1.1" xmlns="http://www.w3.org/2000/svg" width="1024" height="1024">
<path d="M0 0 C337.92 0 675.84 0 1024 0 C1024 337.92 1024 675.84 1024 1024 C686.08 1024 348.16 1024 0 1024 C0 686.08 0 348.16 0 0 Z " fill="#000000" transform="translate(0,0)"/>
<path d="M0 0 C0.91346191 0.00563965 1.82692383 0.0112793 2.76806641 0.01708984 C31.86713335 0.53279536 57.18954967 15.78857837 77.8125 35.3125 C78.69679688 36.13234375 79.58109375 36.9521875 80.4921875 37.796875 C87.96890794 44.95588777 94.03882832 52.74511621 99.8125 61.3125 C100.19083984 61.87324219 100.56917969 62.43398437 100.95898438 63.01171875 C112.97067876 81.16943271 121.51749726 101.27957841 128.3125 121.875 C128.6776622 122.98154434 128.6776622 122.98154434 129.05020142 124.11044312 C147.30716703 179.87959161 153.89662923 237.87864635 156.078125 296.30078125 C156.11905273 297.35990723 156.15998047 298.4190332 156.20214844 299.51025391 C156.27233972 301.41194065 156.33386282 303.31398196 156.38378906 305.21630859 C156.71849219 315.12082828 158.95235231 324.79474248 165.66015625 332.41015625 C185.3286102 349.8585378 217.75546292 355.73165637 242.8125 360.3125 C243.67182129 360.47621094 244.53114258 360.63992188 245.41650391 360.80859375 C258.95167933 363.29616728 272.40602478 363.57315237 286.125 363.5625 C287.40213867 363.56160873 287.40213867 363.56160873 288.70507812 363.56069946 C297.46827725 363.53733234 306.10413398 363.37371882 314.8125 362.3125 C324.60043353 361.58526012 324.60043353 361.58526012 328.9375 364.1875 C332.54904416 368.28058339 332.27196132 372.08503726 332.21484375 377.390625 C331.8125 380.3125 331.8125 380.3125 329.3125 383.375 C321.74495602 388.14193108 313.30940979 389.23333891 304.625 390.4375 C303.48224609 390.60636719 302.33949219 390.77523438 301.16210938 390.94921875 C288.08048838 392.82752951 275.15409467 393.4991507 261.95751953 393.49780273 C259.57956893 393.49998434 257.20208765 393.51820623 254.82421875 393.53710938 C225.65957928 393.6437539 196.45132488 387.25434983 168.35522461 379.89990234 C164.95115385 379.11351788 162.28303659 378.86945278 158.8125 379.3125 C156.18070678 381.08609978 155.82316377 382.26258849 155.15234375 385.40234375 C155.01957031 386.67207031 154.88679687 387.94179688 154.75 389.25 C154.63060059 390.31118042 154.63060059 390.31118042 154.50878906 391.39379883 C154.09131974 395.19021205 153.75279591 398.98921563 153.45703125 402.796875 C152.22522344 417.91161892 149.1149402 432.52797503 145.8125 447.3125 C145.63992676 448.11139648 145.46735352 448.91029297 145.28955078 449.73339844 C137.17942074 487.17441868 121.22402454 523.19345401 88.25 544.9375 C61.87059964 561.64310998 30.88755186 567.50091425 0.10839844 567.49780273 C-2.28729362 567.49997712 -4.68251462 567.51816299 -7.078125 567.53710938 C-21.13474086 567.5902265 -35.09011075 566.78169342 -48.625 562.6875 C-49.49769531 562.42952637 -50.37039063 562.17155273 -51.26953125 561.90576172 C-80.46935742 552.93951075 -106.84173241 534.80712376 -125.1875 510.3125 C-125.97382813 509.27996094 -126.76015625 508.24742187 -127.5703125 507.18359375 C-142.46310209 487.2423013 -152.8275145 464.64798059 -162.40869141 441.79931641 C-162.7597998 440.96319824 -163.1109082 440.12708008 -163.47265625 439.265625 C-163.78082275 438.52473633 -164.08898926 437.78384766 -164.40649414 437.02050781 C-165.06418027 435.31948066 -165.06418027 435.31948066 -166.1875 434.3125 C-169.74574476 441.34319427 -171.57631592 448.37653899 -173.1875 456.0625 C-173.4453125 457.25842773 -173.703125 458.45435547 -173.96875 459.68652344 C-176.2140257 470.19722033 -178.22977975 480.74529925 -180.1875 491.3125 C-183.45742912 508.93649206 -186.96758231 526.39834122 -191.51904297 543.74707031 C-192.50508588 547.5313431 -193.43948349 551.32798506 -194.375 555.125 C-203.45491852 591.81782144 -217.77743064 644.29914542 -252.21606445 665.64868164 C-275.17198705 679.01633603 -306.91952153 680.68380632 -332.41015625 674.53515625 C-361.44729141 666.47120811 -377.19302849 642.99756241 -391.5625 618.26171875 C-402.55865073 598.72296371 -410.8769379 576.78404796 -416.5625 555.125 C-416.86140137 553.99570068 -417.16030273 552.86640137 -417.46826172 551.70288086 C-418.08280873 549.37108325 -418.69430426 547.03847927 -419.30273438 544.70507812 C-419.867724 542.53866095 -420.43636664 540.37319098 -421.00976562 538.20898438 C-425.20128545 522.3685757 -428.40706805 506.45658908 -431.1875 490.3125 C-431.40293457 489.09675293 -431.61836914 487.88100586 -431.84033203 486.62841797 C-435.19577552 467.62905251 -437.40123067 448.75628461 -438.87792969 429.53100586 C-439.14042797 426.37255367 -439.14042797 426.37255367 -439.6739502 423.51626587 C-440.6199911 417.61441654 -440.87440265 411.64523231 -441.234375 405.68359375 C-441.27874443 404.94940153 -441.32311386 404.21520931 -441.36882782 403.45876884 C-442.44964586 385.00779497 -442.4928393 366.56181097 -442.44824219 348.0847168 C-442.43692247 343.35307332 -442.44359706 338.62165685 -442.45511627 333.89002132 C-442.527186 298.95642664 -441.18318085 264.13124863 -438.4375 229.3034668 C-438.17944129 226.02254265 -437.93296445 222.74087287 -437.6875 219.45898438 C-436.90145132 209.13467917 -435.9818417 198.86599929 -434.61621094 188.60180664 C-434.0535122 184.2844717 -433.67577653 179.96259568 -433.3125 175.625 C-432.21229937 163.40042147 -430.44239021 151.27626514 -428.71972656 139.12695312 C-428.01262242 134.05915721 -427.34745727 128.98627449 -426.68408203 123.91259766 C-423.78244501 101.78083916 -420.38708726 79.84636677 -416.125 57.9375 C-415.95319214 57.05146088 -415.78138428 56.16542175 -415.60437012 55.25253296 C-409.42356095 23.49348257 -409.42356095 23.49348257 -403.0859375 18.734375 C-399.34244479 16.89794461 -395.78459748 16.47586759 -391.6875 16.125 C-390.81254883 16.04677002 -389.93759766 15.96854004 -389.03613281 15.88793945 C-380.17856454 15.21039607 -371.30634172 15.072841 -362.42651367 15.01596069 C-360.77885599 15.00539516 -359.13121987 14.99050409 -357.48364258 14.97109985 C-336.96583105 14.76206829 -336.96583105 14.76206829 -330.7265625 20.625 C-325.6857995 29.42714453 -325.55507691 41.40715089 -324.75436401 51.37129211 C-324.4585865 55.03586102 -324.1554683 58.69939515 -323.82974625 62.36141014 C-321.40167968 89.80039224 -320.78584931 117.03005728 -320.91624975 144.56617761 C-320.93935419 150.23511384 -320.94349902 155.90406841 -320.94973755 161.57304382 C-320.96406548 172.29748301 -320.99282451 183.02182485 -321.02798474 193.74621409 C-321.09020721 212.84823236 -321.12819856 231.9503042 -321.15957749 251.05239552 C-321.17107227 257.69930387 -321.189128 264.34614824 -321.21296102 270.99302322 C-321.29165108 293.81447247 -321.17315206 316.62098251 -320.72631836 339.4387207 C-320.69436438 341.07664579 -320.69436438 341.07664579 -320.66176486 342.74766028 C-320.33230157 359.24366563 -319.82941904 375.71437514 -318.875 392.1875 C-318.81025482 393.340224 -318.74550964 394.492948 -318.67880249 395.68060303 C-314.68444419 466.12917279 -303.9232257 537.66933496 -284.875 605.6875 C-284.64466064 606.5139502 -284.41432129 607.34040039 -284.17700195 608.19189453 C-282.96698751 612.31882085 -281.51979917 615.66016054 -279.1875 619.3125 C-279.1875 619.9725 -279.1875 620.6325 -279.1875 621.3125 C-265.79821393 608.83293895 -260.3237962 588.99091817 -254.1875 572.3125 C-253.74728516 571.11834473 -253.30707031 569.92418945 -252.85351562 568.69384766 C-237.10372184 525.53493966 -228.91750279 480.59935831 -220.72509766 435.52734375 C-218.77226629 424.79321488 -216.76490863 414.0767407 -214.6015625 403.3828125 C-212.51241384 393.05085006 -210.59723917 382.70095065 -208.8125 372.3125 C-208.5164238 370.59950245 -208.22019534 368.88653121 -207.92382812 367.17358398 C-207.46515551 364.5203018 -207.00709472 361.86692007 -206.55072021 359.21324158 C-205.66769893 354.07919555 -204.77290475 348.9474296 -203.86599731 343.81755066 C-197.75406338 309.21866943 -192.09383234 274.47514072 -189.10839844 239.45166016 C-186.8534285 213.19433784 -186.8534285 213.19433784 -182.1875 207.3125 C-175.92905085 202.46892909 -168.93427305 202.09678846 -161.25 201.1875 C-159.95489502 201.02282227 -158.65979004 200.85814453 -157.32543945 200.68847656 C-154.76560599 200.3644267 -152.20498485 200.04652866 -149.64355469 199.73535156 C-146.76163925 199.38274648 -143.88444101 199.01004137 -141.0078125 198.6171875 C-121.37790175 195.97872311 -121.37790175 195.97872311 -114.1875 201.3125 C-108.76248754 207.64745143 -105.49626026 214.57470869 -102.75 222.375 C-102.37367432 223.41301758 -101.99734863 224.45103516 -101.60961914 225.52050781 C-91.81802912 252.84415638 -84.01522934 280.80549999 -76.80615234 308.90576172 C-74.01108348 319.77939583 -71.00726889 330.59173341 -67.94970703 341.39404297 C-66.46238329 346.66926074 -65.01015219 351.94656904 -63.671875 357.26171875 C-41.5827086 446.54649609 -41.5827086 446.54649609 13.5 515.10546875 C19.18976227 518.07529399 25.95778813 518.52285322 32.1015625 516.59375 C52.61910465 506.77067963 60.85231831 481.38718901 68 461.5 C77.83077739 433.40284477 84.10007125 405.06060742 88.6875 375.6875 C88.79709045 375.00043976 88.90668091 374.31337952 89.01959229 373.60549927 C92.15486838 354.76301963 92.15486838 354.76301963 85.59765625 337.51953125 C82.01735079 332.98447767 77.54930818 329.51066619 73.05322266 325.92358398 C62.73930353 317.65056568 53.0283255 308.85826162 43.71508789 299.47583008 C41.99001523 297.73995269 40.25438009 296.0151491 38.51757812 294.29101562 C32.55714217 288.33761435 26.95864125 282.29330821 21.71020508 275.69604492 C20.10792415 273.68355699 18.47055281 271.73375465 16.765625 269.80859375 C-23.31518491 224.53735883 -59.64391254 159.87270216 -67.1875 99.3125 C-67.31511719 98.46300781 -67.44273437 97.61351562 -67.57421875 96.73828125 C-70.13770615 77.12926727 -68.71604228 55.29819375 -60.1875 37.3125 C-59.76855469 36.384375 -59.34960938 35.45625 -58.91796875 34.5 C-51.44873648 19.34628382 -38.5713648 8.78962774 -22.72949219 3.12573242 C-15.24243762 0.73047899 -7.83052593 -0.05139104 0 0 Z " fill="#8B51FE" transform="translate(622.1875,184.6875)"/>
<path d="M0 0 C25.34522537 9.33771461 44.03449606 39.59256768 54.97216797 62.95117188 C67.66261572 91.17462662 75.93166286 121.83847363 80.3125 152.4375 C80.45945312 153.46302979 80.60640625 154.48855957 80.7578125 155.54516602 C81.22140637 159.0261819 81.62184916 162.5085947 82 166 C82.08713257 166.80069916 82.17426514 167.60139832 82.26403809 168.42636108 C83.89051549 183.79401903 84.25010506 198.99410711 84.125 214.4375 C84.11492892 216.64517814 84.10581052 218.85286083 84.09765625 221.06054688 C84.07601844 226.37380047 84.04288187 231.68687747 84 237 C75.64631315 228.67140709 68.04323785 219.97055076 60.83984375 210.6484375 C58.96903201 208.22936232 57.06771452 205.84147526 55.12890625 203.4765625 C30.2953968 173.14524185 10.80317829 139.66573777 -3 103 C-3.52970424 101.62490611 -4.05961762 100.24989274 -4.58984375 98.875 C-12.21370293 78.48291467 -16.42155744 55.74944036 -17 34 C-17.03109863 33.14212891 -17.06219727 32.28425781 -17.09423828 31.40039062 C-17.19346581 28.45447989 -17.25747364 25.50954797 -17.3125 22.5625 C-17.3424707 21.62575439 -17.37244141 20.68900879 -17.40332031 19.72387695 C-17.45410925 13.57344681 -16.60534729 10.02384458 -13 5 C-8.60570095 1.02420562 -5.97386555 -0.5531357 0 0 Z " fill="#00000000" transform="translate(630,215)"/>
</svg>
